<svg width="180" height="163" viewBox="0 0 180 163" fill="none" xmlns="http://www.w3.org/2000/svg">
<path d="M128 22.3313V53.4038C128 65.7365 117.973 75.7351 105.606 75.7351H103.341L91.7743 87.2622C91.3213 87.7139 90.6946 88 90 88C89.3582 88 88.7769 87.7666 88.3314 87.3751L88.1351 87.1793L88.1276 87.1718L76.6588 75.7351H74.3862C62.0266 75.7351 52 65.7365 52 53.4038V22.3313C52 9.99863 62.0266 0 74.3938 0H105.606C117.973 0 128 9.99863 128 22.3313Z" fill="#E16E76"/>
<path d="M89.5 20.6401L66.2147 38.4126V55.6234C66.2147 56.0119 66.2944 56.3965 66.4493 56.7553C66.6041 57.1142 66.8311 57.4402 67.1171 57.7149C67.4032 57.9895 67.7429 58.2074 68.1167 58.3561C68.4905 58.5047 68.8911 58.5812 69.2957 58.5812H109.704C110.109 58.5812 110.509 58.5047 110.883 58.3561C111.257 58.2074 111.597 57.9895 111.883 57.7149C112.169 57.4402 112.396 57.1142 112.551 56.7553C112.706 56.3965 112.785 56.0119 112.785 55.6234V38.4126L89.5 20.6401Z" fill="#F5E6C8"/>
<path d="M110.38 36.5766L101.139 29.5234V19.1684C101.139 18.7046 101.331 18.2597 101.673 17.9318C102.014 17.6038 102.478 17.4195 102.961 17.4195H108.558C109.041 17.4195 109.505 17.6038 109.846 17.9318C110.188 18.2597 110.38 18.7046 110.38 19.1684V36.5766V36.5766Z" fill="black"/>
<path d="M91.4403 58.5805H78.082V42.4734C78.082 41.7591 78.685 41.1802 79.429 41.1802H89.4888C90.0061 41.1802 90.5023 41.3775 90.8681 41.7287C91.234 42.0799 91.4395 42.5563 91.4395 43.053V58.5805H91.4403Z" fill="#8FA7B3"/>
<path d="M87.9722 51.5799C88.8802 51.5799 89.6162 50.8733 89.6162 50.0016C89.6162 49.13 88.8802 48.4234 87.9722 48.4234C87.0643 48.4234 86.3282 49.13 86.3282 50.0016C86.3282 50.8733 87.0643 51.5799 87.9722 51.5799Z" fill="#DADADA"/>
<path d="M119.5 43.5375L89.5 20.6401L59.5 43.5375" stroke="#666360" stroke-width="8.767" stroke-miterlimit="10"/>
<path d="M105.493 109.222V107.667L108 105.611L110.507 107.667V109.167L105.493 109.222Z" fill="#F5E6C8"/>
<path d="M110.933 108L111.467 107.222L108 104.444L104.48 107.222L105.067 108L108 105.667L110.933 108Z" fill="black"/>
<path d="M109.227 104.722V105.444L110.187 106.222V104.722H109.227Z" fill="#676674"/>
<path d="M108.16 107.444H106.773V109.222H108.16V107.444Z" fill="#8FA7B3"/>
<path d="M108 108.278C107.914 108.154 107.787 108.111 107.68 108.278C107.669 108.325 107.667 108.35 107.68 108.389C107.725 108.463 107.761 108.486 107.84 108.5C107.915 108.486 107.951 108.463 108 108.389C108.007 108.345 108.006 108.321 108 108.278Z" fill="#DADADA"/>
<path fill-rule="evenodd" clip-rule="evenodd" d="M11.0349 106.073H14.3172V114.776H24.1644V106.073H27.8571V126.525H24.1644V117.822H14.3172V126.525H11.0349V106.073ZM31.5498 116.081C32.1689 114.825 32.8019 114.017 33.6413 113.435C34.1977 112.954 34.8611 112.53 35.6711 112.268C37.0963 111.807 38.4801 112.009 39.6525 112.298L39.8621 112.35L40.0621 112.431C40.6833 112.682 41.3218 113.024 41.9079 113.556C42.6155 114.126 43.2365 114.932 43.8588 116.081C44.7658 120.068 44.6848 122.053 42.6279 124.784C42.0137 125.35 41.4455 125.767 40.8554 126.061C40.5053 126.28 40.149 126.466 39.7995 126.63L39.3391 126.846L38.8332 126.898C37.5235 127.034 36.0637 126.997 34.6675 126.233C34.4368 126.107 34.221 125.967 34.0185 125.818C32.9154 125.225 32.3014 124.37 31.5498 123.044C30.5369 120.374 30.7061 118.842 31.5498 116.081ZM34.8322 116.516C34.2865 117.527 34.1313 118.496 34.4219 121.738C35.5531 123.587 36.4194 124.132 38.5249 123.914C40.5572 122.96 41.2493 121.829 40.9866 117.822C40.461 116.198 40.0037 115.644 38.9352 115.211C36.9424 114.72 36.0547 115.03 34.8322 116.516ZM47.1412 112.165H50.4236V121.738C51.0386 123.426 51.5743 123.909 52.8854 123.914C54.7728 123.837 55.3763 123.085 56.1678 121.303V112.165H59.4502V126.525H56.1678V124.784C54.2061 126.668 53.0238 126.912 50.8339 126.525C48.8335 126.038 48.2129 125.275 47.5515 123.479C47.2945 122.849 47.208 122.465 47.1412 121.738V112.165ZM67.2458 112.165C69.8013 112.194 71.1578 112.54 73.4003 113.905L72.1694 116.516C70.4279 115.129 69.3678 114.679 67.2458 114.776C66.2165 115.086 65.8211 115.435 65.6046 116.516C66.1641 117.69 66.6966 118.156 68.4767 118.257C70.6443 118.615 71.6764 118.989 72.99 120.433C73.7399 122.036 73.7442 122.998 72.99 124.785C72.7924 124.966 72.6233 125.124 72.4761 125.261C71.9175 125.781 71.6753 126.006 71.3897 126.139C71.171 126.24 70.927 126.286 70.496 126.368L70.4958 126.368C70.2844 126.408 70.028 126.457 69.7076 126.525C67.2458 126.96 65.1354 126.433 62.3222 125.22L63.1428 122.609L66.4252 123.914C68.8869 124.136 70.0468 124.074 70.5282 122.609C70.6122 121.677 70.106 121.347 68.887 120.868C65.3489 120.359 64.1396 119.765 63.1428 118.257C62.5137 116.85 62.5649 116.092 63.1428 114.776C64.0539 113.214 64.9788 112.661 67.2458 112.165ZM157.681 119.998H156.764L156.785 120.3H154.639H148.674C148.739 121.214 148.842 121.934 149.202 122.498C149.629 123.169 150.419 123.619 151.936 123.914C152.832 123.981 153.523 123.933 154.186 123.743C154.899 123.539 155.581 123.172 156.45 122.609L157.225 125.074L157.27 125.22C154.447 126.769 152.936 126.885 150.295 126.525C147.708 125.824 146.668 124.709 145.372 121.738C144.94 117.678 145.237 115.841 147.423 113.905C148.62 112.753 149.532 112.383 151.526 112.165C155.281 112.585 156.813 113.879 157.417 117.498C157.489 117.927 157.547 118.39 157.595 118.887C157.629 119.24 157.657 119.609 157.681 119.998ZM154.2 116.3C154.371 116.637 154.482 117.026 154.554 117.498H148.654H148.561C148.634 117.044 148.757 116.683 148.952 116.3C149.051 116.106 149.167 115.908 149.306 115.689C150.18 114.897 150.886 114.716 152.212 114.792C152.415 114.83 152.598 114.872 152.762 114.916C153.474 115.33 153.919 115.745 154.2 116.3ZM88.171 119.998H87.426L87.4442 120.257H85.299H79.1613C79.2258 121.192 79.327 121.925 79.692 122.498C80.1197 123.169 80.9095 123.619 82.4269 123.914C83.3222 123.981 84.0131 123.933 84.6762 123.743C85.3897 123.539 86.0711 123.172 86.9401 122.609L87.7149 125.074L87.7607 125.22C84.9375 126.769 83.4263 126.885 80.7857 126.525C78.1984 125.824 77.1585 124.709 75.8621 121.738C75.4305 117.678 75.7271 115.841 77.9136 113.905C79.1104 112.753 80.022 112.383 82.0166 112.165C85.7718 112.585 87.3038 113.879 87.9075 117.498C87.9792 117.927 88.0378 118.39 88.0855 118.887C88.1192 119.24 88.1475 119.609 88.171 119.998ZM84.8598 116.257C85.0361 116.605 85.1477 117.007 85.22 117.498H79.2142C79.286 117.024 79.4102 116.652 79.6116 116.257C79.71 116.064 79.8269 115.865 79.9651 115.646C80.7221 114.961 81.3526 114.733 82.3676 114.733C82.9689 114.828 83.4132 114.947 83.7476 115.076C84.2737 115.426 84.6244 115.793 84.8598 116.257ZM103.762 106.073V109.119H94.7358V114.776H103.352V117.822H94.7358V126.525H91.0431L91.2089 106.073H103.762ZM109.917 109.119H106.224V106.073H109.917V109.119ZM109.917 112.6H106.224V126.525H109.917V112.6ZM113.199 112.6H116.482V114.341C118.176 112.684 119.21 112.055 121.405 112.165C124.837 112.717 125.543 114.112 125.919 117.387V126.525H122.636C122.636 126.525 122.658 119.076 122.636 117.387C122.614 115.697 120.995 114.341 118.533 115.211C117.481 115.971 117.171 116.459 116.892 117.387L116.71 126.525H113.331L113.199 112.6ZM138.638 106.073H142.331V126.525H138.638V124.349C137.34 126.51 136.096 126.86 133.304 126.525C129.368 125.263 128.823 123.052 128.791 118.257C129.153 114.303 130.584 113.325 133.714 112.165C135.947 112.087 137.048 112.494 138.638 114.341V106.073ZM138.638 117.387C138.941 121.861 138.352 123.218 136.176 123.914C133.266 123.938 132.404 122.939 132.073 119.563C132.165 116.7 132.754 115.977 134.125 115.211C136.499 114.776 137.503 115.219 138.638 117.387ZM160.384 112.6H163.666V114.776C165.221 112.499 166.466 112.228 169 112.6V115.211C165.718 115.211 164.566 115.96 163.666 117.822V126.525H160.384V112.6Z" fill="white"/>
</svg>
