<svg width="180" height="163" viewBox="0 0 180 163" fill="none" xmlns="http://www.w3.org/2000/svg">
<path d="M128 22.3313V53.4038C128 65.7365 117.973 75.7351 105.606 75.7351H103.341L91.7743 87.2622C91.3213 87.7139 90.6946 88 90 88C89.3582 88 88.7769 87.7666 88.3314 87.3751L88.1351 87.1793L88.1276 87.1718L76.6588 75.7351H74.3862C62.0266 75.7351 52 65.7365 52 53.4038V22.3313C52 9.99863 62.0266 0 74.3938 0H105.606C117.973 0 128 9.99863 128 22.3313Z" fill="#E16E76"/>
<path d="M89.5 20.64L66.2148 38.4125V55.6234C66.2148 56.0118 66.2944 56.3964 66.4493 56.7553C66.6041 57.1141 66.8311 57.4402 67.1172 57.7148C67.4033 57.9895 67.7429 58.2073 68.1167 58.356C68.4905 58.5046 68.8912 58.5811 69.2958 58.5811H109.704C110.109 58.5811 110.509 58.5046 110.883 58.356C111.257 58.2073 111.597 57.9895 111.883 57.7148C112.169 57.4402 112.396 57.1141 112.551 56.7553C112.706 56.3964 112.785 56.0118 112.785 55.6234V38.4125L89.5 20.64Z" fill="#F5E6C8"/>
<path d="M110.38 36.5766L101.139 29.5235V19.1684C101.139 18.7046 101.331 18.2598 101.673 17.9318C102.014 17.6038 102.478 17.4196 102.961 17.4196H108.558C109.041 17.4196 109.505 17.6038 109.846 17.9318C110.188 18.2598 110.38 18.7046 110.38 19.1684V36.5766V36.5766Z" fill="black"/>
<path d="M91.4403 58.5805H78.082V42.4734C78.082 41.7592 78.685 41.1803 79.429 41.1803H89.4888C90.0061 41.1803 90.5023 41.3776 90.8681 41.7288C91.234 42.08 91.4395 42.5563 91.4395 43.053V58.5805H91.4403Z" fill="#8FA7B3"/>
<path d="M87.9722 51.5799C88.8802 51.5799 89.6162 50.8733 89.6162 50.0017C89.6162 49.1301 88.8802 48.4235 87.9722 48.4235C87.0643 48.4235 86.3282 49.1301 86.3282 50.0017C86.3282 50.8733 87.0643 51.5799 87.9722 51.5799Z" fill="#DADADA"/>
<path d="M119.5 43.5375L89.5 20.64L59.5 43.5375" stroke="#666360" stroke-width="8.767" stroke-miterlimit="10"/>
</svg>
